<svg xmlns="http://www.w3.org/2000/svg" xmlns:xlink="http://www.w3.org/1999/xlink" viewBox="0,0,256,256" width="64px" height="64px" fill-rule="nonzero">
<g fill="none" fill-rule="nonzero" stroke="none" stroke-width="1" stroke-linecap="butt" stroke-linejoin="miter" stroke-miterlimit="10" stroke-dasharray="" stroke-dashoffset="0" font-family="none" font-weight="none" font-size="none" text-anchor="none" style="mix-blend-mode: normal">
<g transform="scale(4,4)">
<rect x="7" y="7" width="50" height="50" rx="6" ry="6" fill="#7e8189"></rect>
<path d="M19.5,19c-1.933,0 -3.5,1.567 -3.5,3.5c0,1.933 1.567,3.5 3.5,3.5c1.933,0 3.5,-1.567 3.5,-3.5c0,-1.933 -1.567,-3.5 -3.5,-3.5zM39.76,28c-2.21,0 -5,1.78 -6.19,2.79v-1.33c0,-0.55228 -0.44772,-1 -1,-1h-5.09c-0.55228,0 -1,0.44772 -1,1v21c0,0.55228 0.44772,1 1,1h5.4c0.55228,0 1,-0.44772 1,-1v-10.58c0,-3.16 1.78,-5.34 3.89,-5.34c2.11,0 3.37,2.39 3.37,5.51v10.43c0,0.55228 0.44772,1 1,1h5.4c0.55228,0 1,-0.44772 1,-1v-11.71c-0.14,-5.33 -1.17,-10.77 -8.78,-10.77zM16,29h7v22h-7z" fill="#faefde"></path>
<path d="M11,7h42c2.20914,0 4,1.79086 4,4v0c0,1.65685 -1.34315,3 -3,3h-44c-1.65685,0 -3,-1.34315 -3,-3v0c0,-2.20914 1.79086,-4 4,-4z" fill="#abadb5"></path>
<path d="M23,28h-7c-0.55228,0 -1,0.44772 -1,1v22c0,0.55228 0.44772,1 1,1h7c0.55228,0 1,-0.44772 1,-1v-22c0,-0.55228 -0.44772,-1 -1,-1zM22,50h-5v-20h5zM39.88,27.44c-1.97719,-0.02755 -3.90171,0.63754 -5.44,1.88v-0.32c0,-0.55228 -0.44772,-1 -1,-1h-6.44c-0.55228,0 -1,0.44772 -1,1v22c0,0.55228 0.44772,1 1,1h6.7c0.55228,0 1,-0.44772 1,-1v-11.11c0,-3.31 0.82,-4.55 3,-4.55c2.18,0 2.49,1.46 2.49,4.72v10.94c0,0.55228 0.44772,1 1,1h6.71c0.55228,0 1,-0.44772 1,-1v-12.28c0.02,-5.58 -1.05,-11.28 -9.02,-11.28zM46.88,50h-4.67v-9.94c0,-2.35 0,-6.72 -4.49,-6.72c-5,0 -5,4.93 -5,6.55v10.11h-4.72v-20h4.43v2c0.04221,0.56889 0.51959,1.00685 1.09,1c0.36859,-0.00098 0.70676,-0.20465 0.88,-0.53c1.1289,-1.92894 3.22649,-3.08146 5.46,-3c5.87,0 7,3.55 7,9.29zM19.5,18c-2.48528,0 -4.5,2.01472 -4.5,4.5c0,2.48528 2.01472,4.5 4.5,4.5c2.48528,0 4.5,-2.01472 4.5,-4.5c0,-2.48528 -2.01472,-4.5 -4.5,-4.5zM19.5,25.33c-1.56297,0 -2.83,-1.26703 -2.83,-2.83c0,-1.56297 1.26703,-2.83 2.83,-2.83c1.56297,0 2.83,1.26703 2.83,2.83c0,1.56297 -1.26703,2.83 -2.83,2.83z" fill="#8d6c9f"></path>
<path d="M51,6h-38c-3.86599,0 -7,3.13401 -7,7v38c0,3.86599 3.13401,7 7,7h38c3.86599,0 7,-3.13401 7,-7v-38c0,-3.86599 -3.13401,-7 -7,-7zM56,51c0,2.76142 -2.23858,5 -5,5h-38c-2.76142,0 -5,-2.23858 -5,-5v-38c0,-2.76142 2.23858,-5 5,-5h38c2.76142,0 5,2.23858 5,5z" fill="#8d6c9f"></path>
<path d="M17,16c0.55228,0 1,-0.44772 1,-1v-2c0,-0.55228 -0.44772,-1 -1,-1c-0.55228,0 -1,0.44772 -1,1v2c0,0.55228 0.44772,1 1,1zM12,12c-0.55228,0 -1,0.44772 -1,1v2c0,0.55228 0.44772,1 1,1c0.55228,0 1,-0.44772 1,-1v-2c0,-0.55228 -0.44772,-1 -1,-1zM32,16c0.55228,0 1,-0.44772 1,-1v-2c0,-0.55228 -0.44772,-1 -1,-1c-0.55228,0 -1,0.44772 -1,1v2c0,0.55228 0.44772,1 1,1zM37,16c0.55228,0 1,-0.44772 1,-1v-2c0,-0.55228 -0.44772,-1 -1,-1c-0.55228,0 -1,0.44772 -1,1v2c0,0.55228 0.44772,1 1,1zM42,16c0.55228,0 1,-0.44772 1,-1v-2c0,-0.55228 -0.44772,-1 -1,-1c-0.55228,0 -1,0.44772 -1,1v2c0,0.55228 0.44772,1 1,1zM47,16c0.55228,0 1,-0.44772 1,-1v-2c0,-0.55228 -0.44772,-1 -1,-1c-0.55228,0 -1,0.44772 -1,1v2c0,0.55228 0.44772,1 1,1zM52,12c-0.55228,0 -1,0.44772 -1,1v2c0,0.55228 0.44772,1 1,1c0.55228,0 1,-0.44772 1,-1v-2c0,-0.55228 -0.44772,-1 -1,-1zM22,16c0.55228,0 1,-0.44772 1,-1v-2c0,-0.55228 -0.44772,-1 -1,-1c-0.55228,0 -1,0.44772 -1,1v2c0,0.55228 0.44772,1 1,1zM27,16c0.55228,0 1,-0.44772 1,-1v-2c0,-0.55228 -0.44772,-1 -1,-1c-0.55228,0 -1,0.44772 -1,1v2c0,0.55228 0.44772,1 1,1z" fill="#8d6c9f"></path>
</g>
</g>
</svg>